PathFileType	4	(X/Y/Z)	/Users/itak/Documents/Research/Walk-IL/dataset/trc/00037_00004.trc
DataRate	CameraRate	NumFrames	NumMarkers	Units	OrigDataRate	OrigDataStartFrame	OrigNumFrames
100.000000	100.000000	4	53	mm	100.000000	97	778
Frame#	Time	RPSI			LPSI			L3			STRN			T10			C7			CLAV			RBAK			LBAK			LSHO			LUPA			LAEL			LAOL			LWTS			LWPS			LFRA			LIFD			LHPS			LHTS			RSHO			RUPA			RAEL			RAOL			RWTS			RWPS			RFRA			RIFD			RHTS			RHPS			RBHD			LFHD			RFHD			LBHD			RHIP			RASI			LASI			LKNE			LTHI			LANK			LTIP			LTOE			LMT1			LMT5			LHEE			RKNE			RTHI			RANK			RTIP			RTOE			RMT1			RMT5			RHEE			LHIP			
		X1	Y1	Z1	X2	Y2	Z2	X3	Y3	Z3	X4	Y4	Z4	X5	Y5	Z5	X6	Y6	Z6	X7	Y7	Z7	X8	Y8	Z8	X9	Y9	Z9	X10	Y10	Z10	X11	Y11	Z11	X12	Y12	Z12	X13	Y13	Z13	X14	Y14	Z14	X15	Y15	Z15	X16	Y16	Z16	X17	Y17	Z17	X18	Y18	Z18	X19	Y19	Z19	X20	Y20	Z20	X21	Y21	Z21	X22	Y22	Z22	X23	Y23	Z23	X24	Y24	Z24	X25	Y25	Z25	X26	Y26	Z26	X27	Y27	Z27	X28	Y28	Z28	X29	Y29	Z29	X30	Y30	Z30	X31	Y31	Z31	X32	Y32	Z32	X33	Y33	Z33	X34	Y34	Z34	X35	Y35	Z35	X36	Y36	Z36	X37	Y37	Z37	X38	Y38	Z38	X39	Y39	Z39	X40	Y40	Z40	X41	Y41	Z41	X42	Y42	Z42	X43	Y43	Z43	X44	Y44	Z44	X45	Y45	Z45	X46	Y46	Z46	X47	Y47	Z47	X48	Y48	Z48	X49	Y49	Z49	X50	Y50	Z50	X51	Y51	Z51	X52	Y52	Z52	X53	Y53	Z53	

98	0.97	475.0423889160156	1073.361450195312	974.7638549804688	493.360595703125	1062.799194335938	1138.010498046875	492.4774780273438	1125.339111328125	1066.732055664062	273.4057006835938	1316.387939453125	1077.399047851562	520.8963623046875	1270.515258789062	1072.819580078125	467.8523864746094	1537.984741210938	1087.912231445312	313.8218994140625	1442.513793945312	1082.910766601562	522.9054565429688	1402.354858398438	1006.064270019531	488.67236328125	1496.270263671875	1183.890258789062	388.5098266601562	1500.68310546875	1259.517822265625	425.09765625	1377.085083007812	1336.668334960938	434.8604125976562	1160.400756835938	1363.451049804688	487.2022399902344	1149.460693359375	1272.334228515625	355.4580078125	902.5227661132812	1309.265991210938	432.97802734375	892.478271484375	1352.761596679688	425.5275268554688	1043.672119140625	1371.224609375	341.2494812011719	714.9461059570312	1289.5771484375	404.7201843261719	801.0302124023438	1351.451904296875	339.6780395507812	807.50244140625	1321.544311523438	392.8448181152344	1523.123168945312	913.3697509765625	409.814453125	1455.212524414062	841.826904296875	462.0609741210938	1189.315063476562	815.3129272460938	458.7217712402344	1160.685668945312	911.0360107421875	338.3135070800781	925.8855590820312	835.1901245117188	405.5959167480469	913.2442626953125	773.9705200195312	452.7786560058594	1112.615356445312	798.07080078125	326.1511535644531	750.2266845703125	856.8590698242188	305.8556823730469	817.1844482421875	819.1804809570312	364.75146484375	811.789306640625	771.6865234375	386.1929931640625	1728.585205078125	1148.62109375	222.4626617431641	1709.15576171875	1005.914184570312	211.011474609375	1713.818237304688	1104.039794921875	396.9065551757812	1718.445556640625	1005.001159667969	352.6659240722656	959.5169067382812	882.7481079101562	257.7214965820312	992.6591796875	965.7132568359375	284.1220703125	1006.03466796875	1199.739624023438	352.0274353027344	517.6432495117188	1190.906860351562	379.3731689453125	651.1453857421875	1231.0947265625	474.2603149414062	39.07295989990234	1169.651123046875	440.7132873535156	282.7803649902344	1197.31884765625	250.0257720947266	40.6360969543457	1124.0419921875	307.12939453125	48.620361328125	1102.124877929688	352.9539184570312	38.60539627075195	1199.807739257812	538.257080078125	46.78604125976562	1110.962158203125	342.6704406738281	521.4732055664062	923.611328125	329.8118286132812	793.507080078125	883.7592163085938	468.8651123046875	43.03349304199219	927.98828125	370.904296875	399.4033508300781	919.7827758789062	240.1468353271484	42.81280136108398	990.4244995117188	306.7549743652344	45.8740119934082	1014.505737304688	317.7933959960938	41.99535751342773	919.529052734375	527.0653686523438	43.17992782592773	967.7819213867188	406.7052307128906	958.1935424804688	1251.7548828125	
99	0.98	475.0879821777344	1073.239501953125	975.29931640625	493.52099609375	1062.58349609375	1138.49072265625	492.5518493652344	1125.393798828125	1067.268432617188	272.8486633300781	1316.291625976562	1077.859985351562	520.6138916015625	1270.604736328125	1073.3798828125	467.1339111328125	1537.972045898438	1088.597290039062	313.2135009765625	1442.42724609375	1083.398071289062	522.37646484375	1402.424438476562	1006.723022460938	487.9082946777344	1496.2978515625	1184.57666015625	387.6857604980469	1500.651489257812	1260.136352539062	424.2658081054688	1377.0615234375	1337.28466796875	434.19775390625	1160.337158203125	1364.000366210938	486.6840209960938	1149.492553710938	1272.958618164062	354.9314270019531	902.5186767578125	1309.554931640625	432.3727722167969	892.4412231445312	1353.124267578125	424.8664855957031	1043.62158203125	1371.681396484375	340.6662902832031	715.0037841796875	1289.748901367188	404.1753540039062	801.0150146484375	1351.763793945312	339.1091613769531	807.5162353515625	1321.778442382812	392.3053588867188	1523.143920898438	913.9933471679688	409.460205078125	1455.329223632812	842.4310302734375	462.1007080078125	1189.560302734375	815.7816772460938	458.6759338378906	1160.820678710938	911.4581909179688	338.5682678222656	925.9678344726562	835.1820068359375	406.0443115234375	913.446533203125	774.0762939453125	452.8461608886719	1112.862426757812	798.4282836914062	326.65771484375	750.26416015625	856.7493896484375	306.2236022949219	817.2122192382812	819.0115966796875	365.2463684082031	811.9555053710938	771.6446533203125	385.6012573242188	1728.369506835938	1149.281005859375	222.2403106689453	1709.30078125	1006.033630371094	210.6013641357422	1713.97119140625	1104.139526367188	396.7167663574219	1718.275756835938	1005.678039550781	352.5429992675781	959.4199829101562	883.450927734375	257.7210998535156	992.6610717773438	966.4906005859375	284.3268432617188	1005.991088867188	1200.519775390625	350.3802185058594	517.5784301757812	1191.075439453125	378.0441284179688	650.9920043945312	1231.37451171875	474.2861328125	39.08931350708008	1169.69287109375	439.5123596191406	282.5134582519531	1197.449951171875	250.1278533935547	40.75656509399414	1123.609497070312	307.2808227539062	48.58992004394531	1101.758056640625	352.8298645019531	38.82966232299805	1199.432250976562	538.3607788085938	46.66847610473633	1111.04736328125	339.9114074707031	521.3177490234375	924.2277221679688	328.8768005371094	793.49462890625	884.3837890625	468.8624877929688	43.05305480957031	927.95263671875	368.3426818847656	398.944091796875	920.3433227539062	240.1723480224609	42.88714981079102	990.365478515625	306.7969665527344	45.91609191894531	1014.489440917969	317.841796875	41.98985290527344	919.5429077148438	527.10888671875	43.19972229003906	967.78125	406.9273376464844	958.0178833007812	1252.351928710938	
100	0.99	475.1216735839844	1073.005737304688	975.8328857421875	493.6714172363281	1062.276489257812	1138.961791992188	492.6151123046875	1125.408447265625	1067.79833984375	272.2640686035156	1316.140502929688	1078.359375	520.3033447265625	1270.64599609375	1073.94580078125	466.3721313476562	1537.908081054688	1089.302124023438	312.5487365722656	1442.301879882812	1083.90234375	521.8206176757812	1402.452758789062	1007.401733398438	487.1051940917969	1496.282592773438	1185.283203125	386.8048706054688	1500.574462890625	1260.76318359375	423.3989562988281	1376.999633789062	1337.926391601562	433.5034484863281	1160.230834960938	1364.57177734375	486.1600341796875	1149.490234375	1273.60546875	354.3778381347656	902.4806518554688	1309.827880859375	431.7191467285156	892.3604125976562	1353.46337890625	424.181640625	1043.52294921875	1372.141357421875	340.002685546875	715.0416259765625	1289.8271484375	403.5689086914062	800.9443359375	1352.02734375	338.4664306640625	807.489990234375	1321.937377929688	391.709228515625	1523.0986328125	914.64013671875	409.0447692871094	1455.3857421875	843.0550537109375	462.1086730957031	1189.7646484375	816.238037109375	458.5931091308594	1160.898803710938	911.8677978515625	338.7691040039062	926.0043334960938	835.1246948242188	406.4614562988281	913.6112670898438	774.1557006835938	452.8962707519531	1113.06787109375	798.7738037109375	327.123291015625	750.2720336914062	856.6107788085938	306.529541015625	817.2125854492188	818.80908203125	365.6709289550781	812.0866088867188	771.5667114257812	384.9974060058594	1728.083984375	1149.932495117188	221.9807434082031	1709.4052734375	1006.140808105469	210.1611175537109	1714.093383789062	1104.219360351562	396.5129699707031	1718.024047851562	1006.350891113281	352.3442077636719	959.2435302734375	884.1468505859375	257.6893005371094	992.642822265625	967.2806396484375	284.471435546875	1005.924377441406	1201.3310546875	348.9998779296875	517.4639282226562	1191.326049804688	376.8722229003906	650.8204345703125	1231.725219726562	474.3231201171875	39.09339904785156	1169.746337890625	438.5066223144531	282.2443237304688	1197.622436523438	250.2454528808594	40.87482452392578	1123.143676757812	307.4473876953125	48.57318115234375	1101.383911132812	352.6975708007812	39.04801940917969	1199.054565429688	538.4922485351562	46.51511001586914	1111.142456054688	336.5966186523438	521.1073608398438	924.92236328125	327.7633666992188	793.4150390625	885.1434936523438	468.8243103027344	43.11766815185547	927.9283447265625	365.3227233886719	398.3853759765625	920.9566040039062	240.1985015869141	42.95455169677734	990.3233032226562	306.8407592773438	45.93703460693359	1014.485778808594	317.8750305175781	41.98452377319336	919.5615234375	527.1488037109375	43.2830810546875	967.7931518554688	407.0876159667969	957.7906494140625	1252.977783203125	
101	1	475.1361083984375	1072.647216796875	976.3588256835938	493.8003845214844	1061.884155273438	1139.421630859375	492.6449584960938	1125.374877929688	1068.312866210938	271.6572875976562	1315.920043945312	1078.8984375	519.95361328125	1270.629516601562	1074.519287109375	465.5720520019531	1537.783935546875	1090.023193359375	311.8299865722656	1442.118530273438	1084.42041015625	521.2382202148438	1402.427368164062	1008.098937988281	486.261962890625	1496.215576171875	1186.0068359375	385.8677368164062	1500.438720703125	1261.397094726562	422.5004577636719	1376.889770507812	1338.591674804688	432.7743225097656	1160.071899414062	1365.16943359375	485.6246337890625	1149.441650390625	1274.279663085938	353.78173828125	902.3954467773438	1310.086059570312	431.0092163085938	892.2219848632812	1353.785766601562	423.4670104980469	1043.362915039062	1372.611328125	339.2627258300781	715.0424194335938	1289.807006835938	402.8814697265625	800.7994995117188	1352.238647460938	337.7485046386719	807.4049072265625	1322.010375976562	391.0596618652344	1522.975708007812	915.3060302734375	408.5662841796875	1455.368286132812	843.6951904296875	462.0853271484375	1189.911376953125	816.6766357421875	458.4739074707031	1160.908081054688	912.2611083984375	338.9279479980469	925.97900390625	835.033935546875	406.837646484375	913.7238159179688	774.2084350585938	452.9348449707031	1113.215576171875	799.105224609375	327.5274353027344	750.2388916015625	856.4354858398438	306.7821044921875	817.17431640625	818.57373046875	366.02587890625	812.1678466796875	771.4544677734375	384.3646545410156	1727.727172851562	1150.568969726562	221.6843566894531	1709.455810546875	1006.226623535156	209.675048828125	1714.172607421875	1104.260986328125	396.2919616699219	1717.679931640625	1007.015075683594	352.0726013183594	958.9650268554688	884.8226928710938	257.636962890625	992.5844116210938	968.0796508789062	284.5432739257812	1005.826904296875	1202.1611328125	347.9506225585938	517.3130493164062	1191.664672851562	375.906494140625	650.6398315429688	1232.157836914062	474.3744812011719	39.07962417602539	1169.816650390625	437.7381896972656	281.9794616699219	1197.849609375	250.3928375244141	41.00288772583008	1122.660766601562	307.6336364746094	48.57695770263672	1101.0185546875	352.5724182128906	39.25415802001953	1198.69677734375	538.6565551757812	46.32870483398438	1111.252685546875	332.6988525390625	520.8342895507812	925.6908569335938	326.4525756835938	793.2532958984375	886.0590209960938	468.7501220703125	43.24287033081055	927.9232788085938	361.8268737792969	397.7205505371094	921.6153564453125	240.2240295410156	43.01064300537109	990.30029296875	306.88525390625	45.93351364135742	1014.496459960938	317.8850708007812	41.98210906982422	919.5846557617188	527.181640625	43.45378112792969	967.8277587890625	407.1773376464844	957.5236206054688	1253.627685546875	
